<?xml version="1.0" standalone="no"?>
<!DOCTYPE svg PUBLIC "-//W3C//DTD SVG 20010904//EN"
 "http://www.w3.org/TR/2001/REC-SVG-20010904/DTD/svg10.dtd">
<svg version="1.0" xmlns="http://www.w3.org/2000/svg"
 width="266.000000pt" height="266.000000pt" viewBox="0 0 266.000000 266.000000"
 preserveAspectRatio="xMidYMid meet">
<metadata>
Created by potrace 1.14, written by Peter Selinger 2001-2017
</metadata>
<g transform="translate(0.000000,266.000000) scale(0.100000,-0.100000)"
fill="#000000" stroke="none">
<path d="M1168 2649 c-187 -23 -384 -94 -555 -201 -101 -62 -270 -220 -343
-319 -335 -450 -357 -1036 -58 -1516 62 -101 220 -270 319 -343 450 -335 1036
-357 1516 -58 101 62 270 220 343 319 335 450 357 1036 58 1516 -62 101 -220
270 -319 343 -157 117 -346 203 -527 240 -120 24 -321 33 -434 19z m868 -727
c18 -74 45 -169 59 -212 52 -155 74 -124 84 115 5 123 9 160 19 160 30 0 20
-272 -13 -366 -21 -60 -44 -80 -98 -86 -36 -4 -48 -1 -75 22 -41 34 -75 101
-101 196 -24 84 -31 95 -31 48 0 -61 -27 -150 -52 -176 -49 -49 -139 -39 -177
20 l-19 31 -6 -50 c-13 -97 -28 -169 -43 -197 -15 -29 -65 -57 -103 -57 -55 0
-116 66 -135 145 -6 29 -7 29 -28 -25 -28 -69 -72 -95 -155 -88 -65 6 -99 29
-132 94 -55 106 -23 247 69 306 42 27 52 29 118 25 l72 -4 -5 26 c-4 19 0 32
14 45 27 24 94 33 109 14 7 -7 28 -87 48 -177 45 -204 73 -293 88 -288 34 11
63 263 45 391 l-12 79 28 23 c30 27 97 33 113 12 5 -7 15 -51 21 -97 13 -91
54 -195 74 -189 24 8 39 83 45 221 6 133 7 139 32 158 18 15 37 19 70 17 l45
-3 32 -133z m-1286 80 c114 -57 172 -275 120 -444 -45 -147 -188 -238 -304
-194 -41 16 -66 46 -66 81 0 22 18 18 25 -5 19 -60 78 -67 124 -15 41 47 62
121 68 242 8 153 -23 289 -72 311 -32 15 -82 -18 -112 -74 -44 -78 -57 -156
-57 -339 -1 -161 1 -177 33 -302 32 -126 32 -134 17 -158 -20 -30 -83 -38
-112 -14 -25 20 -141 430 -193 679 l-20 95 20 21 c26 27 60 37 91 25 20 -8 30
-33 73 -192 l50 -184 7 125 c10 197 53 300 142 341 52 23 121 24 166 1z m1474
-663 c34 -40 34 -74 0 -96 -35 -23 -56 -8 -70 48 -12 47 -29 58 -65 39 -18
-10 -21 -18 -16 -53 7 -55 30 -81 121 -145 l77 -55 36 34 c42 41 62 77 71 131
9 51 27 46 26 -8 -2 -49 -23 -92 -70 -144 -35 -39 -35 -39 -14 -52 32 -19 60
-81 60 -130 0 -82 -67 -148 -172 -170 -143 -30 -225 80 -143 192 13 18 36 41
50 50 l25 17 -52 33 c-29 19 -60 43 -69 54 -15 19 -17 17 -24 -39 -10 -80 -40
-176 -66 -209 -42 -54 -142 -72 -209 -38 -23 11 -44 34 -62 67 -23 42 -28 46
-28 24 0 -46 -31 -118 -61 -143 -101 -86 -200 -6 -234 189 -15 85 -14 90 3
108 24 24 90 39 114 26 10 -5 18 -20 18 -32 0 -27 33 -150 56 -207 36 -90 69
-20 82 171 10 134 25 171 88 206 42 24 112 30 144 13 11 -6 25 -29 32 -51 11
-38 10 -43 -7 -56 -38 -27 -59 -13 -69 45 -5 32 -14 52 -22 52 -50 0 -13 -277
47 -354 31 -40 68 -32 96 19 35 64 56 187 48 281 -8 94 4 127 58 168 45 34 74
45 129 45 40 1 50 -3 72 -30z m-1117 -68 c44 -21 83 -71 110 -145 22 -59 22
-189 0 -252 -35 -100 -124 -173 -212 -174 -39 0 -105 31 -105 49 0 5 -3 16 -6
25 -11 29 15 17 31 -14 34 -66 109 -21 141 87 45 148 10 403 -55 403 -29 0
-82 -49 -102 -95 -48 -110 -51 -367 -5 -544 25 -95 26 -105 11 -127 -19 -29
-74 -33 -98 -6 -26 29 -86 241 -176 626 -8 34 -7 41 15 63 18 18 33 23 57 21
l32 -3 47 -160 47 -160 1 75 c1 132 38 258 88 303 23 21 86 46 117 46 11 0 39
-8 62 -18z m314 -90 c22 -18 22 -19 6 -44 -21 -33 -75 -51 -111 -37 -40 15
-33 59 14 82 45 23 62 23 91 -1z"/>
<path d="M1211 1781 c-30 -30 -44 -97 -38 -182 9 -134 64 -201 104 -126 25 44
27 302 3 317 -24 15 -48 12 -69 -9z"/>
<path d="M2132 954 c-40 -32 -62 -73 -62 -117 0 -61 46 -76 100 -31 64 54 75
125 25 158 -30 20 -24 21 -63 -10z"/>
</g>
</svg>
